<svg xmlns="http://www.w3.org/2000/svg" viewBox="0 0 357.5 238.91"><defs><style>.cls-1{fill:#fff;}</style></defs><g id="Capa_2" data-name="Capa 2"><g id="Logo"><path class="cls-1" d="M75.06,233.57a3.61,3.61,0,0,1-.64,2.26,2.23,2.23,0,0,1-3.33.18v2.9H69.72v-8.45H71l.06.62a2,2,0,0,1,1.64-.73,2.1,2.1,0,0,1,1.75.83,3.75,3.75,0,0,1,.63,2.31Zm-1.36-.11a2.47,2.47,0,0,0-.37-1.45,1.18,1.18,0,0,0-1-.54,1.24,1.24,0,0,0-1.2.7v2.7a1.26,1.26,0,0,0,1.21.71,1.18,1.18,0,0,0,1-.53A2.83,2.83,0,0,0,73.7,233.46Z"/><path class="cls-1" d="M82.3,231.71a3.43,3.43,0,0,0-.56,0,1.26,1.26,0,0,0-1.27.72v4.17H79.1v-6.1h1.31l0,.68a1.54,1.54,0,0,1,1.38-.79,1.26,1.26,0,0,1,.48.08Z"/><path class="cls-1" d="M85.59,233.46a3.57,3.57,0,0,1,.36-1.62,2.53,2.53,0,0,1,1-1.1,2.8,2.8,0,0,1,1.48-.39,2.65,2.65,0,0,1,2,.79,3.16,3.16,0,0,1,.84,2.11v.32a3.7,3.7,0,0,1-.34,1.62,2.67,2.67,0,0,1-1,1.1,2.9,2.9,0,0,1-1.49.38,2.6,2.6,0,0,1-2.06-.86,3.26,3.26,0,0,1-.78-2.29Zm1.37.11a2.48,2.48,0,0,0,.39,1.48,1.27,1.27,0,0,0,1.08.53,1.26,1.26,0,0,0,1.08-.54,2.69,2.69,0,0,0,.39-1.58,2.4,2.4,0,0,0-.4-1.47,1.26,1.26,0,0,0-1.08-.54,1.28,1.28,0,0,0-1.07.53A2.7,2.7,0,0,0,87,233.57Z"/><path class="cls-1" d="M100.65,233.57a3.61,3.61,0,0,1-.65,2.26,2,2,0,0,1-1.72.84,2.09,2.09,0,0,1-1.61-.66v2.9H95.3v-8.45h1.27l.05.62a2,2,0,0,1,1.64-.73,2.08,2.08,0,0,1,1.75.83,3.69,3.69,0,0,1,.64,2.31Zm-1.37-.11a2.55,2.55,0,0,0-.36-1.45,1.18,1.18,0,0,0-1-.54,1.26,1.26,0,0,0-1.21.7v2.7a1.29,1.29,0,0,0,1.22.71,1.15,1.15,0,0,0,1-.53A2.75,2.75,0,0,0,99.28,233.46Z"/><path class="cls-1" d="M104.69,228.88a.72.72,0,0,1,.21-.53.91.91,0,0,1,1.14,0,.72.72,0,0,1,.21.53.66.66,0,0,1-.21.51.88.88,0,0,1-1.14,0A.66.66,0,0,1,104.69,228.88Zm1.46,7.68h-1.37v-6.1h1.37Z"/><path class="cls-1" d="M113.21,236.67a2.82,2.82,0,0,1-2.11-.82,3,3,0,0,1-.81-2.18v-.17a3.72,3.72,0,0,1,.35-1.63,2.77,2.77,0,0,1,1-1.12,2.61,2.61,0,0,1,1.42-.4,2.4,2.4,0,0,1,1.93.79,3.38,3.38,0,0,1,.68,2.25V234h-4a1.79,1.79,0,0,0,.51,1.19,1.51,1.51,0,0,0,1.11.44,1.83,1.83,0,0,0,1.53-.76l.74.7a2.38,2.38,0,0,1-1,.85A3,3,0,0,1,113.21,236.67Zm-.16-5.22a1.15,1.15,0,0,0-.91.39,2,2,0,0,0-.44,1.1h2.61v-.1a1.7,1.7,0,0,0-.37-1A1.15,1.15,0,0,0,113.05,231.45Z"/><path class="cls-1" d="M119.35,233.47a3.68,3.68,0,0,1,.65-2.27,2.11,2.11,0,0,1,1.76-.85,2,2,0,0,1,1.57.68V227.9h1.36v8.66h-1.23l-.07-.63a2,2,0,0,1-1.64.74,2.08,2.08,0,0,1-1.74-.86A3.74,3.74,0,0,1,119.35,233.47Zm1.37.12a2.53,2.53,0,0,0,.36,1.45,1.18,1.18,0,0,0,1,.52,1.3,1.3,0,0,0,1.23-.75V232.2a1.3,1.3,0,0,0-1.22-.73,1.17,1.17,0,0,0-1,.53A2.83,2.83,0,0,0,120.72,233.59Z"/><path class="cls-1" d="M132.65,236.56a2,2,0,0,1-.15-.57,2.31,2.31,0,0,1-3.1.16,1.67,1.67,0,0,1-.58-1.3,1.71,1.71,0,0,1,.72-1.49,3.48,3.48,0,0,1,2.07-.52h.84v-.4a1.09,1.09,0,0,0-.26-.76,1.07,1.07,0,0,0-.81-.29,1.2,1.2,0,0,0-.77.24.71.71,0,0,0-.3.59H129a1.54,1.54,0,0,1,.33-.94,2.15,2.15,0,0,1,.9-.68,3.11,3.11,0,0,1,1.28-.25,2.58,2.58,0,0,1,1.71.54,1.92,1.92,0,0,1,.65,1.51v2.75a3.22,3.22,0,0,0,.23,1.32v.09Zm-1.5-1a1.57,1.57,0,0,0,.76-.2,1.31,1.31,0,0,0,.54-.53V233.7h-.74a2.07,2.07,0,0,0-1.14.26.85.85,0,0,0-.38.75.77.77,0,0,0,.26.63A1,1,0,0,0,131.15,235.58Z"/><path class="cls-1" d="M137.89,233.47a3.62,3.62,0,0,1,.65-2.27,2.09,2.09,0,0,1,1.75-.85,2,2,0,0,1,1.57.68V227.9h1.37v8.66H142l-.07-.63a2,2,0,0,1-1.64.74,2.07,2.07,0,0,1-1.73-.86A3.74,3.74,0,0,1,137.89,233.47Zm1.36.12a2.53,2.53,0,0,0,.36,1.45,1.18,1.18,0,0,0,1,.52,1.3,1.3,0,0,0,1.23-.75V232.2a1.29,1.29,0,0,0-1.22-.73,1.17,1.17,0,0,0-1,.53A2.83,2.83,0,0,0,139.25,233.59Z"/><path class="cls-1" d="M150.23,236.67a2.82,2.82,0,0,1-2.11-.82,3,3,0,0,1-.81-2.18v-.17a3.72,3.72,0,0,1,.35-1.63,2.77,2.77,0,0,1,1-1.12,2.61,2.61,0,0,1,1.42-.4,2.41,2.41,0,0,1,1.93.79,3.38,3.38,0,0,1,.68,2.25V234h-4a1.79,1.79,0,0,0,.51,1.19,1.51,1.51,0,0,0,1.11.44,1.83,1.83,0,0,0,1.53-.76l.74.7a2.38,2.38,0,0,1-1,.85A3,3,0,0,1,150.23,236.67Zm-.16-5.22a1.15,1.15,0,0,0-.91.39,2.13,2.13,0,0,0-.45,1.1h2.61v-.1a1.7,1.7,0,0,0-.36-1A1.17,1.17,0,0,0,150.07,231.45Z"/><path class="cls-1" d="M160,234.9a.61.61,0,0,0-.3-.55,3.15,3.15,0,0,0-1-.34,5.29,5.29,0,0,1-1.16-.37,1.55,1.55,0,0,1-1-1.44,1.62,1.62,0,0,1,.66-1.32,2.68,2.68,0,0,1,1.7-.53,2.74,2.74,0,0,1,1.76.54,1.72,1.72,0,0,1,.68,1.4H160a.82.82,0,0,0-.3-.65,1.07,1.07,0,0,0-.77-.26,1.27,1.27,0,0,0-.74.2.66.66,0,0,0-.28.56.54.54,0,0,0,.26.49,3.33,3.33,0,0,0,1.07.35,4.91,4.91,0,0,1,1.27.43,1.81,1.81,0,0,1,.68.59,1.47,1.47,0,0,1,.22.83,1.59,1.59,0,0,1-.68,1.33,2.92,2.92,0,0,1-1.79.51,3.13,3.13,0,0,1-1.33-.27,2.19,2.19,0,0,1-.92-.74,1.83,1.83,0,0,1-.32-1h1.33a1,1,0,0,0,.36.75,1.48,1.48,0,0,0,.9.26,1.36,1.36,0,0,0,.82-.21A.61.61,0,0,0,160,234.9Z"/><path class="cls-1" d="M167.62,234.83l1.29-4.37h1.42l-2.12,6.1H167l-2.13-6.1h1.42Z"/><path class="cls-1" d="M176.68,236.67a2.82,2.82,0,0,1-2.11-.82,3,3,0,0,1-.81-2.18v-.17a3.72,3.72,0,0,1,.35-1.63,2.77,2.77,0,0,1,1-1.12,2.61,2.61,0,0,1,1.42-.4,2.41,2.41,0,0,1,1.93.79,3.38,3.38,0,0,1,.68,2.25V234h-4a1.79,1.79,0,0,0,.51,1.19,1.51,1.51,0,0,0,1.11.44,1.83,1.83,0,0,0,1.53-.76l.74.7a2.38,2.38,0,0,1-1,.85A3.06,3.06,0,0,1,176.68,236.67Zm-.16-5.22a1.15,1.15,0,0,0-.91.39,2.05,2.05,0,0,0-.45,1.1h2.61v-.1a1.7,1.7,0,0,0-.36-1A1.17,1.17,0,0,0,176.52,231.45Z"/><path class="cls-1" d="M184.35,230.46l0,.71a2.17,2.17,0,0,1,1.77-.82c1.27,0,1.92.73,1.94,2.18v4h-1.37v-3.95a1.24,1.24,0,0,0-.25-.86,1,1,0,0,0-.82-.28,1.34,1.34,0,0,0-1.24.75v4.34h-1.36v-6.1Z"/><path class="cls-1" d="M194.1,229v1.48h1.07v1H194.1v3.4a.72.72,0,0,0,.14.51.64.64,0,0,0,.49.15,2,2,0,0,0,.48-.06v1.06a3.21,3.21,0,0,1-.9.13c-1.06,0-1.58-.58-1.58-1.74v-3.45h-1v-1h1V229Z"/><path class="cls-1" d="M202.75,236.56a2.26,2.26,0,0,1-.16-.57,2.1,2.1,0,0,1-1.6.68,2.16,2.16,0,0,1-1.5-.52,1.67,1.67,0,0,1-.58-1.3,1.7,1.7,0,0,1,.73-1.49,3.48,3.48,0,0,1,2.07-.52h.84v-.4a1.05,1.05,0,0,0-.27-.76,1,1,0,0,0-.8-.29,1.18,1.18,0,0,0-.77.24.71.71,0,0,0-.3.59H199a1.54,1.54,0,0,1,.33-.94,2.25,2.25,0,0,1,.91-.68,3.11,3.11,0,0,1,1.28-.25,2.53,2.53,0,0,1,1.7.54,1.9,1.9,0,0,1,.66,1.51v2.75a3.07,3.07,0,0,0,.23,1.32v.09Zm-1.5-1a1.57,1.57,0,0,0,.76-.2,1.31,1.31,0,0,0,.54-.53V233.7h-.74a2.1,2.1,0,0,0-1.15.26.88.88,0,0,0-.38.75.8.8,0,0,0,.26.63A1,1,0,0,0,201.25,235.58Z"/><path class="cls-1" d="M210,229v1.48H211v1H210v3.4a.78.78,0,0,0,.13.51.68.68,0,0,0,.5.15,2.1,2.1,0,0,0,.48-.06v1.06a3.33,3.33,0,0,1-.91.13c-1,0-1.58-.58-1.58-1.74v-3.45h-1v-1h1V229Z"/><path class="cls-1" d="M218.66,236a2.12,2.12,0,0,1-1.72.71,1.88,1.88,0,0,1-1.5-.58,2.45,2.45,0,0,1-.51-1.68v-3.95h1.37v3.94c0,.77.32,1.16,1,1.16a1.34,1.34,0,0,0,1.34-.72v-4.38H220v6.1h-1.29Z"/><path class="cls-1" d="M225.72,236.56h-1.37V227.9h1.37Z"/><path class="cls-1" d="M233.79,236a2.09,2.09,0,0,1-1.71.71,1.88,1.88,0,0,1-1.5-.58,2.45,2.45,0,0,1-.51-1.68v-3.95h1.37v3.94c0,.77.32,1.16,1,1.16a1.35,1.35,0,0,0,1.35-.72v-4.38h1.37v6.1h-1.29Z"/><path class="cls-1" d="M240.69,230.46l0,.64a2.19,2.19,0,0,1,1.76-.75,1.68,1.68,0,0,1,1.67.94,2.15,2.15,0,0,1,1.87-.94,1.9,1.9,0,0,1,1.5.56,2.45,2.45,0,0,1,.51,1.64v4h-1.37v-4a1.27,1.27,0,0,0-.25-.85,1.38,1.38,0,0,0-1.61,0,1.33,1.33,0,0,0-.41.66v4.18H243v-4a1,1,0,0,0-1.1-1.08,1.21,1.21,0,0,0-1.16.67v4.42H239.4v-6.1Z"/><path class="cls-1" d="M253.19,235.12a.77.77,0,0,1,.59.22.79.79,0,0,1,0,1.07.8.8,0,0,1-.59.21.86.86,0,0,1-.59-.2.8.8,0,0,1,0-1.08A.76.76,0,0,1,253.19,235.12Z"/><path class="cls-1" d="M261,235.58a1.24,1.24,0,0,0,.85-.3,1.05,1.05,0,0,0,.36-.74h1.29a1.93,1.93,0,0,1-.36,1.07,2.37,2.37,0,0,1-.9.78,2.71,2.71,0,0,1-1.23.28,2.61,2.61,0,0,1-2-.82,3.35,3.35,0,0,1-.74-2.29v-.14a3.21,3.21,0,0,1,.74-2.23,2.58,2.58,0,0,1,2-.84,2.52,2.52,0,0,1,1.77.63,2.27,2.27,0,0,1,.72,1.67h-1.29a1.28,1.28,0,0,0-.36-.86,1.13,1.13,0,0,0-.85-.34,1.21,1.21,0,0,0-1,.48,2.5,2.5,0,0,0-.37,1.46v.22a2.48,2.48,0,0,0,.36,1.48A1.21,1.21,0,0,0,261,235.58Z"/><path class="cls-1" d="M267.11,233.46a3.57,3.57,0,0,1,.36-1.62,2.55,2.55,0,0,1,1-1.1,2.78,2.78,0,0,1,1.47-.39,2.66,2.66,0,0,1,2,.79,3.15,3.15,0,0,1,.83,2.11v.32a3.7,3.7,0,0,1-.35,1.62,2.58,2.58,0,0,1-1,1.1,2.92,2.92,0,0,1-1.49.38,2.62,2.62,0,0,1-2.07-.86,3.26,3.26,0,0,1-.78-2.29Zm1.37.11a2.48,2.48,0,0,0,.39,1.48,1.28,1.28,0,0,0,1.09.53A1.23,1.23,0,0,0,271,235a2.69,2.69,0,0,0,.39-1.58A2.4,2.4,0,0,0,271,232a1.34,1.34,0,0,0-2.14,0A2.7,2.7,0,0,0,268.48,233.57Z"/><path class="cls-1" d="M278.12,230.46l0,.64a2.18,2.18,0,0,1,1.76-.75,1.68,1.68,0,0,1,1.67.94,2.15,2.15,0,0,1,1.87-.94,1.91,1.91,0,0,1,1.5.56,2.45,2.45,0,0,1,.51,1.64v4H284.1v-4a1.22,1.22,0,0,0-.26-.85,1.08,1.08,0,0,0-.84-.27,1.12,1.12,0,0,0-.76.25,1.33,1.33,0,0,0-.41.66v4.18h-1.37v-4a1,1,0,0,0-1.1-1.08,1.21,1.21,0,0,0-1.16.67v4.42h-1.37v-6.1Z"/><path class="cls-1" d="M179,102.81a51.21,51.21,0,0,0,12.34,7.53v40H166.69v-40A51.48,51.48,0,0,0,179,102.81Zm43.63-44.47V0h-9.15V49.59A48.6,48.6,0,0,0,222.67,58.34ZM236.66,0h-9.15V61.45a51.56,51.56,0,0,0,9.15,4Zm4.85,0V66.84a63,63,0,0,0,9.14,1.44V0ZM116.57,0h-9.15V68.28a63.1,63.1,0,0,0,9.15-1.44Zm14,0h-9.15V65.47a51.56,51.56,0,0,0,9.15-4Zm14,49.59V0H135.4V58.34A48.3,48.3,0,0,0,144.55,49.59Zm106.1,23.52v9.14C223.54,80.44,203.09,66,193.8,43.56c-.65,2.3-1.39,4.56-2.2,6.77,10.89,21.4,32,35.07,59.05,36.77v9.14c-27.87-1.54-50.41-14.73-63.59-35.48q-1.25,2.46-2.63,4.81c14.21,20.82,37.64,34,66.22,35.52v49.24h-9.14V109.41c-1.64-.22-3.25-.47-4.85-.75v41.67h-9.15V106.55c-1.63-.46-3.25-1-4.84-1.49v45.27h-9.15V101.45A88.91,88.91,0,0,1,179,73.72a88.87,88.87,0,0,1-34.49,27.73v48.88H135.4V105.06c-1.59.54-3.2,1-4.84,1.49v43.78h-9.15V108.66c-1.59.28-3.21.53-4.84.75v40.92h-9.15V101.09c28.58-1.5,52-14.7,66.23-35.52-.93-1.57-1.8-3.17-2.64-4.81-13.17,20.75-35.72,33.94-63.59,35.48V87.1c27.08-1.7,48.17-15.37,59.05-36.77q-1.22-3.31-2.2-6.77C155,66,134.53,80.44,107.42,82.25V73.11c30.64-2.38,50.66-22.4,53-53h9.17a97.68,97.68,0,0,0,2.21,16.17,83.25,83.25,0,0,0,2.61-16.17h9.18a82.5,82.5,0,0,0,2.6,16.17,95.75,95.75,0,0,0,2.21-16.17h9.18C200,50.71,220,70.73,250.65,73.11Zm-69-22.42c-1-2.18-1.84-4.42-2.62-6.72-.79,2.3-1.66,4.54-2.63,6.72q1.22,2.93,2.63,5.72Q180.45,53.62,181.66,50.69Z"/><path class="cls-1" d="M25.65,176.51H14.22v31H11.41v-31H0v-2.38H25.65Z"/><path class="cls-1" d="M44.16,204.34q-2.47,3.6-7.9,3.6a7.71,7.71,0,0,1-6-2.3q-2.06-2.31-2.1-6.82V182.7h2.72v15.78q0,7.08,5.73,7.08,6,0,7.54-4.93V182.7h2.74v24.78H44.21Z"/><path class="cls-1" d="M57.06,207.48H54.31V172.3h2.75Z"/><path class="cls-1" d="M80.44,204.34q-2.47,3.6-7.9,3.6a7.67,7.67,0,0,1-6-2.3q-2.07-2.31-2.11-6.82V182.7h2.72v15.78q0,7.08,5.73,7.08,6,0,7.54-4.93V182.7h2.75v24.78H80.49Z"/><path class="cls-1" d="M92.77,182.7l.09,4a9.14,9.14,0,0,1,3.43-3.37,9.41,9.41,0,0,1,4.58-1.12q5.86,0,7.45,4.81a9.27,9.27,0,0,1,3.55-3.56,9.74,9.74,0,0,1,4.9-1.25q8,0,8.13,8.7v16.54h-2.75V191.15a7.36,7.36,0,0,0-1.43-4.93c-.94-1.06-2.47-1.6-4.59-1.6a7.33,7.33,0,0,0-5,1.91,6.79,6.79,0,0,0-2.26,4.55v16.4h-2.75V190.94a6.84,6.84,0,0,0-1.5-4.75,6,6,0,0,0-4.55-1.57,6.89,6.89,0,0,0-4.44,1.48,8.63,8.63,0,0,0-2.75,4.38v17H90.13V182.7Z"/><path class="cls-1" d="M156.35,193.58h-9.69v13.9h-2.84V174.13h10.83q5.34,0,8.34,2.58a9.88,9.88,0,0,1,1.12,12.89,9.57,9.57,0,0,1-5,3.38l8.33,14.2v.3h-3Zm-9.69-2.39h8.64a8,8,0,0,0,5.7-2,7.63,7.63,0,0,0-.09-10.71,9.32,9.32,0,0,0-6.3-2h-8Z"/><path class="cls-1" d="M182.62,207.94a10.65,10.65,0,0,1-9.69-5.9,13.64,13.64,0,0,1-1.42-6.24v-1a14.48,14.48,0,0,1,1.39-6.43,11,11,0,0,1,3.86-4.5,9.45,9.45,0,0,1,5.36-1.64,9,9,0,0,1,7.16,3.08q2.64,3.08,2.64,8.42v1.53H174.24v.53a10.38,10.38,0,0,0,2.41,7,7.7,7.7,0,0,0,6.09,2.8,8.85,8.85,0,0,0,3.88-.8,8.67,8.67,0,0,0,3.06-2.56l1.71,1.3A10,10,0,0,1,182.62,207.94Zm-.5-23.37a6.86,6.86,0,0,0-5.21,2.27,10.45,10.45,0,0,0-2.58,6.09H189.2v-.29a9.13,9.13,0,0,0-2-5.82A6.33,6.33,0,0,0,182.12,184.57Z"/><path class="cls-1" d="M212.9,207.48a13,13,0,0,1-.52-3.46,9.65,9.65,0,0,1-3.68,2.9,11.27,11.27,0,0,1-4.73,1,8.33,8.33,0,0,1-5.78-2,6.48,6.48,0,0,1-2.21-5,6.63,6.63,0,0,1,3-5.73q3-2.12,8.39-2.11h5v-2.82a5.37,5.37,0,0,0-1.64-4.17,6.74,6.74,0,0,0-4.77-1.53A7.45,7.45,0,0,0,201.2,186a4.36,4.36,0,0,0-1.88,3.52l-2.75,0a6.39,6.39,0,0,1,2.75-5.12,10.59,10.59,0,0,1,6.76-2.16,9.68,9.68,0,0,1,6.54,2.07,7.46,7.46,0,0,1,2.46,5.78v11.73a14.72,14.72,0,0,0,.75,5.39v.27Zm-8.61-2a9.15,9.15,0,0,0,4.91-1.33,7.72,7.72,0,0,0,3.15-3.55v-5.45h-4.9a12.26,12.26,0,0,0-6.41,1.5,4.49,4.49,0,0,0-2.32,4,4.44,4.44,0,0,0,1.55,3.46A5.85,5.85,0,0,0,204.29,205.51Z"/><path class="cls-1" d="M225.45,207.48h-2.74V172.3h2.74Z"/><path class="cls-1" d="M252,191.49h-15.6V205.1h17.93v2.38H233.54V174.13h20.64v2.38H236.36v12.6H252Z"/><path class="cls-1" d="M274.42,201.18a3.89,3.89,0,0,0-1.63-3.27,12.61,12.61,0,0,0-4.94-1.94,22.75,22.75,0,0,1-5.12-1.6,6.91,6.91,0,0,1-2.7-2.21,5.51,5.51,0,0,1-.88-3.16,5.89,5.89,0,0,1,2.45-4.85,9.9,9.9,0,0,1,6.27-1.91,10.17,10.17,0,0,1,6.66,2,6.59,6.59,0,0,1,2.51,5.35h-2.75a4.45,4.45,0,0,0-1.82-3.62,8.19,8.19,0,0,0-8.94-.24,3.7,3.7,0,0,0-1.63,3.12,3.38,3.38,0,0,0,1.36,2.88,14.29,14.29,0,0,0,5,1.86,23.54,23.54,0,0,1,5.4,1.81,7.09,7.09,0,0,1,2.67,2.32,6.36,6.36,0,0,1-1.66,8.29,10.81,10.81,0,0,1-6.61,1.88,11.11,11.11,0,0,1-7-2.1,6.46,6.46,0,0,1-2.69-5.3h2.75a4.75,4.75,0,0,0,2,3.74,8.22,8.22,0,0,0,4.93,1.34,7.78,7.78,0,0,0,4.63-1.26A3.76,3.76,0,0,0,274.42,201.18Z"/><path class="cls-1" d="M287.6,176.35v6.35h5.13v2.24H287.6v16.53a5.18,5.18,0,0,0,.74,3.08,2.89,2.89,0,0,0,2.48,1,17.78,17.78,0,0,0,2.23-.23l.11,2.22a8.85,8.85,0,0,1-2.93.39,4.89,4.89,0,0,1-4.1-1.64,7.68,7.68,0,0,1-1.28-4.82V184.94h-4.56V182.7h4.56v-6.35Z"/><path class="cls-1" d="M314.05,207.48a13.3,13.3,0,0,1-.53-3.46,9.54,9.54,0,0,1-3.67,2.9,11.27,11.27,0,0,1-4.73,1,8.38,8.38,0,0,1-5.79-2,6.51,6.51,0,0,1-2.21-5,6.64,6.64,0,0,1,3-5.73q3-2.12,8.39-2.11h5v-2.82a5.41,5.41,0,0,0-1.64-4.17,6.74,6.74,0,0,0-4.77-1.53,7.45,7.45,0,0,0-4.74,1.47,4.33,4.33,0,0,0-1.88,3.52l-2.75,0a6.39,6.39,0,0,1,2.75-5.12,10.58,10.58,0,0,1,6.75-2.16,9.64,9.64,0,0,1,6.54,2.07,7.44,7.44,0,0,1,2.47,5.78v11.73a14.72,14.72,0,0,0,.75,5.39v.27Zm-8.61-2a9.15,9.15,0,0,0,4.91-1.33,7.83,7.83,0,0,0,3.15-3.55v-5.45h-4.9a12.26,12.26,0,0,0-6.41,1.5,4.49,4.49,0,0,0-2.32,4,4.44,4.44,0,0,0,1.55,3.46A5.85,5.85,0,0,0,305.44,205.51Z"/><path class="cls-1" d="M327.79,176.35v6.35h5.13v2.24h-5.13v16.53a5.18,5.18,0,0,0,.75,3.08,2.88,2.88,0,0,0,2.48,1,17.5,17.5,0,0,0,2.22-.23l.12,2.22a8.9,8.9,0,0,1-2.93.39,4.89,4.89,0,0,1-4.1-1.64,7.67,7.67,0,0,1-1.29-4.82V184.94h-4.55V182.7H325v-6.35Z"/><path class="cls-1" d="M348.2,207.94a10.65,10.65,0,0,1-9.69-5.9,13.64,13.64,0,0,1-1.42-6.24v-1a14.48,14.48,0,0,1,1.39-6.43,11,11,0,0,1,3.86-4.5,9.45,9.45,0,0,1,5.36-1.64,9,9,0,0,1,7.16,3.08q2.64,3.08,2.64,8.42v1.53H339.82v.53a10.38,10.38,0,0,0,2.41,7,7.7,7.7,0,0,0,6.09,2.8,8.85,8.85,0,0,0,3.88-.8,8.67,8.67,0,0,0,3.06-2.56l1.71,1.3A10,10,0,0,1,348.2,207.94Zm-.5-23.37a6.86,6.86,0,0,0-5.21,2.27,10.45,10.45,0,0,0-2.58,6.09h14.87v-.29a9.13,9.13,0,0,0-2-5.82A6.33,6.33,0,0,0,347.7,184.57Z"/></g></g></svg>