<svg xmlns="http://www.w3.org/2000/svg" viewBox="0 0 851.19 172.74"><defs><style>.cls-1{fill:#3c3c3b;}</style></defs><g id="Capa_2" data-name="Capa 2"><g id="Logo"><path class="cls-1" d="M213.89,163a6.63,6.63,0,0,1-1.17,4.12,4.05,4.05,0,0,1-6.07.33v5.28h-2.5v-15.4h2.3l.1,1.13a3.67,3.67,0,0,1,3-1.33,3.78,3.78,0,0,1,3.19,1.51,6.73,6.73,0,0,1,1.16,4.21Zm-2.49-.21a4.65,4.65,0,0,0-.66-2.64,2.15,2.15,0,0,0-1.89-1,2.29,2.29,0,0,0-2.2,1.26v4.94a2.32,2.32,0,0,0,2.22,1.29,2.15,2.15,0,0,0,1.86-1A5.09,5.09,0,0,0,211.4,162.8Z"/><path class="cls-1" d="M227.09,159.62a6.8,6.8,0,0,0-1-.08,2.28,2.28,0,0,0-2.31,1.32v7.6h-2.5V157.34h2.38l.07,1.24a2.8,2.8,0,0,1,2.5-1.44,2.31,2.31,0,0,1,.89.14Z"/><path class="cls-1" d="M233.09,162.8a6.49,6.49,0,0,1,.65-3,4.68,4.68,0,0,1,1.82-2,5.09,5.09,0,0,1,2.69-.7,4.86,4.86,0,0,1,3.65,1.44,5.72,5.72,0,0,1,1.52,3.85V163a6.62,6.62,0,0,1-.63,2.94,4.78,4.78,0,0,1-1.81,2,5.2,5.2,0,0,1-2.72.71,4.84,4.84,0,0,1-3.77-1.57,6,6,0,0,1-1.41-4.18Zm2.5.21a4.43,4.43,0,0,0,.71,2.69,2.48,2.48,0,0,0,3.94,0,5,5,0,0,0,.7-2.89,4.41,4.41,0,0,0-.72-2.67,2.32,2.32,0,0,0-2-1,2.26,2.26,0,0,0-1.94,1A4.86,4.86,0,0,0,235.59,163Z"/><path class="cls-1" d="M260.54,163a6.63,6.63,0,0,1-1.17,4.12,4.07,4.07,0,0,1-6.08.33v5.28H250.8v-15.4h2.3l.1,1.13a3.66,3.66,0,0,1,3-1.33,3.78,3.78,0,0,1,3.19,1.51,6.8,6.8,0,0,1,1.16,4.21Zm-2.49-.21a4.65,4.65,0,0,0-.66-2.64,2.17,2.17,0,0,0-1.9-1,2.31,2.31,0,0,0-2.2,1.26v4.94a2.34,2.34,0,0,0,2.22,1.29,2.16,2.16,0,0,0,1.87-1A5.09,5.09,0,0,0,258.05,162.8Z"/><path class="cls-1" d="M267.92,154.45a1.32,1.32,0,0,1,.36-.95,1.63,1.63,0,0,1,2.09,0,1.29,1.29,0,0,1,.37.95,1.27,1.27,0,0,1-.37.94,1.63,1.63,0,0,1-2.09,0A1.3,1.3,0,0,1,267.92,154.45Zm2.65,14h-2.5V157.34h2.5Z"/><path class="cls-1" d="M283.45,168.67a5.14,5.14,0,0,1-3.85-1.5,5.4,5.4,0,0,1-1.48-4v-.31a6.75,6.75,0,0,1,.64-3,4.8,4.8,0,0,1,1.81-2,4.73,4.73,0,0,1,2.59-.73,4.39,4.39,0,0,1,3.51,1.44,6.19,6.19,0,0,1,1.24,4.11v1h-7.27a3.34,3.34,0,0,0,.92,2.18,2.74,2.74,0,0,0,2,.8,3.37,3.37,0,0,0,2.79-1.38l1.35,1.28a4.54,4.54,0,0,1-1.78,1.55A5.7,5.7,0,0,1,283.45,168.67Zm-.3-9.53a2.09,2.09,0,0,0-1.66.72,3.78,3.78,0,0,0-.81,2h4.76v-.18a3.08,3.08,0,0,0-.67-1.9A2.07,2.07,0,0,0,283.15,159.14Z"/><path class="cls-1" d="M294.64,162.82a6.6,6.6,0,0,1,1.19-4.13,3.8,3.8,0,0,1,3.2-1.55,3.62,3.62,0,0,1,2.85,1.23v-5.69h2.5v15.78h-2.26l-.12-1.15a3.71,3.71,0,0,1-3,1.36,3.78,3.78,0,0,1-3.16-1.58A6.79,6.79,0,0,1,294.64,162.82Zm2.5.21a4.6,4.6,0,0,0,.65,2.65,2.11,2.11,0,0,0,1.85.95,2.35,2.35,0,0,0,2.24-1.37v-4.74a2.33,2.33,0,0,0-2.22-1.34,2.13,2.13,0,0,0-1.87,1A5.15,5.15,0,0,0,297.14,163Z"/><path class="cls-1" d="M318.89,168.46a4.12,4.12,0,0,1-.29-1,3.87,3.87,0,0,1-2.92,1.25,3.92,3.92,0,0,1-2.73-1,3,3,0,0,1-1.06-2.36,3.15,3.15,0,0,1,1.32-2.73,6.36,6.36,0,0,1,3.78-1h1.53v-.73a1.93,1.93,0,0,0-.48-1.38,1.9,1.9,0,0,0-1.47-.52,2.22,2.22,0,0,0-1.4.42,1.34,1.34,0,0,0-.54,1.09h-2.5a2.78,2.78,0,0,1,.6-1.71,4.12,4.12,0,0,1,1.65-1.25,5.87,5.87,0,0,1,2.33-.45,4.67,4.67,0,0,1,3.12,1,3.5,3.5,0,0,1,1.19,2.76v5a5.74,5.74,0,0,0,.42,2.4v.17Zm-2.74-1.8a2.85,2.85,0,0,0,1.39-.36,2.45,2.45,0,0,0,1-1v-2.1h-1.35a3.67,3.67,0,0,0-2.08.48,1.57,1.57,0,0,0-.7,1.37,1.47,1.47,0,0,0,.48,1.15A1.86,1.86,0,0,0,316.15,166.66Z"/><path class="cls-1" d="M328.43,162.82a6.6,6.6,0,0,1,1.19-4.13,3.8,3.8,0,0,1,3.2-1.55,3.62,3.62,0,0,1,2.85,1.23v-5.69h2.5v15.78h-2.26l-.12-1.15a3.71,3.71,0,0,1-3,1.36,3.78,3.78,0,0,1-3.16-1.58A6.79,6.79,0,0,1,328.43,162.82Zm2.5.21a4.6,4.6,0,0,0,.65,2.65,2.11,2.11,0,0,0,1.85.95,2.35,2.35,0,0,0,2.24-1.37v-4.74a2.33,2.33,0,0,0-2.22-1.34,2.13,2.13,0,0,0-1.87,1A5.15,5.15,0,0,0,330.93,163Z"/><path class="cls-1" d="M350.94,168.67a5.14,5.14,0,0,1-3.85-1.5,5.4,5.4,0,0,1-1.48-4v-.31a6.75,6.75,0,0,1,.64-3,4.8,4.8,0,0,1,1.81-2,4.71,4.71,0,0,1,2.59-.73,4.39,4.39,0,0,1,3.51,1.44,6.19,6.19,0,0,1,1.23,4.11v1h-7.26a3.29,3.29,0,0,0,.92,2.18,2.74,2.74,0,0,0,2,.8,3.38,3.38,0,0,0,2.79-1.38l1.35,1.28a4.61,4.61,0,0,1-1.78,1.55A5.7,5.7,0,0,1,350.94,168.67Zm-.3-9.53a2.09,2.09,0,0,0-1.66.72,3.78,3.78,0,0,0-.81,2h4.76v-.18a3.08,3.08,0,0,0-.67-1.9A2.07,2.07,0,0,0,350.64,159.14Z"/><path class="cls-1" d="M368.83,165.44a1.15,1.15,0,0,0-.55-1,5.81,5.81,0,0,0-1.83-.61,9.72,9.72,0,0,1-2.13-.68,2.86,2.86,0,0,1-1.87-2.62,3,3,0,0,1,1.22-2.41,4.8,4.8,0,0,1,3.08-1,5,5,0,0,1,3.22,1,3.13,3.13,0,0,1,1.23,2.56h-2.5a1.56,1.56,0,0,0-.53-1.2,2.1,2.1,0,0,0-1.42-.47,2.17,2.17,0,0,0-1.34.38,1.18,1.18,0,0,0-.52,1,1,1,0,0,0,.48.9,7,7,0,0,0,2,.64,9.29,9.29,0,0,1,2.3.77,3.28,3.28,0,0,1,1.25,1.08,2.71,2.71,0,0,1,.4,1.52,2.89,2.89,0,0,1-1.24,2.43,5.32,5.32,0,0,1-3.26.93,5.7,5.7,0,0,1-2.43-.5,4,4,0,0,1-1.67-1.35,3.22,3.22,0,0,1-.6-1.86h2.43a1.75,1.75,0,0,0,.67,1.36,2.57,2.57,0,0,0,1.63.48,2.51,2.51,0,0,0,1.5-.38A1.18,1.18,0,0,0,368.83,165.44Z"/><path class="cls-1" d="M382.64,165.3l2.35-8h2.58l-3.85,11.12h-2.17l-3.88-11.12h2.58Z"/><path class="cls-1" d="M399.15,168.67a5.14,5.14,0,0,1-3.84-1.5,5.4,5.4,0,0,1-1.48-4v-.31a6.75,6.75,0,0,1,.64-3,4.8,4.8,0,0,1,1.81-2,4.71,4.71,0,0,1,2.59-.73,4.39,4.39,0,0,1,3.51,1.44,6.19,6.19,0,0,1,1.23,4.11v1h-7.26a3.29,3.29,0,0,0,.92,2.18,2.74,2.74,0,0,0,2,.8,3.38,3.38,0,0,0,2.79-1.38l1.35,1.28a4.61,4.61,0,0,1-1.78,1.55A5.71,5.71,0,0,1,399.15,168.67Zm-.29-9.53a2.09,2.09,0,0,0-1.66.72,3.7,3.7,0,0,0-.81,2h4.76v-.18a3.08,3.08,0,0,0-.67-1.9A2.07,2.07,0,0,0,398.86,159.14Z"/><path class="cls-1" d="M413.13,157.34l.07,1.29a4,4,0,0,1,3.24-1.49c2.32,0,3.49,1.32,3.54,4v7.35h-2.5v-7.2a2.27,2.27,0,0,0-.46-1.57,1.91,1.91,0,0,0-1.5-.51,2.42,2.42,0,0,0-2.25,1.37v7.91h-2.49V157.34Z"/><path class="cls-1" d="M430.91,154.64v2.7h2v1.85h-2v6.21a1.37,1.37,0,0,0,.25.92,1.17,1.17,0,0,0,.9.28,3.83,3.83,0,0,0,.88-.1v1.93a6.1,6.1,0,0,1-1.65.24q-2.88,0-2.88-3.18v-6.3h-1.83v-1.85h1.83v-2.7Z"/><path class="cls-1" d="M446.69,168.46a3.42,3.42,0,0,1-.29-1,4.2,4.2,0,0,1-5.66.29,3.06,3.06,0,0,1-1.05-2.36,3.15,3.15,0,0,1,1.32-2.73,6.35,6.35,0,0,1,3.77-1h1.53v-.73a1.93,1.93,0,0,0-.48-1.38,1.9,1.9,0,0,0-1.47-.52,2.24,2.24,0,0,0-1.4.42,1.34,1.34,0,0,0-.54,1.09h-2.5a2.74,2.74,0,0,1,.61-1.71,4,4,0,0,1,1.65-1.25,5.8,5.8,0,0,1,2.33-.45,4.62,4.62,0,0,1,3.11,1,3.5,3.5,0,0,1,1.19,2.76v5a5.74,5.74,0,0,0,.42,2.4v.17Zm-2.75-1.8a2.82,2.82,0,0,0,1.39-.36,2.33,2.33,0,0,0,1-1v-2.1H445a3.71,3.71,0,0,0-2.09.48,1.59,1.59,0,0,0-.7,1.37,1.47,1.47,0,0,0,.48,1.15A1.88,1.88,0,0,0,443.94,166.66Z"/><path class="cls-1" d="M459.82,154.64v2.7h2v1.85h-2v6.21a1.37,1.37,0,0,0,.25.92,1.17,1.17,0,0,0,.9.28,3.69,3.69,0,0,0,.87-.1v1.93a6,6,0,0,1-1.64.24q-2.88,0-2.88-3.18v-6.3h-1.83v-1.85h1.83v-2.7Z"/><path class="cls-1" d="M475.69,167.37a3.91,3.91,0,0,1-3.13,1.3,3.48,3.48,0,0,1-2.74-1.06,4.51,4.51,0,0,1-.93-3.06v-7.21h2.5v7.17c0,1.42.59,2.12,1.76,2.12a2.45,2.45,0,0,0,2.45-1.3v-8h2.5v11.12h-2.35Z"/><path class="cls-1" d="M488.56,168.46h-2.49V152.68h2.49Z"/><path class="cls-1" d="M503.28,167.37a3.87,3.87,0,0,1-3.12,1.3,3.47,3.47,0,0,1-2.74-1.06,4.51,4.51,0,0,1-.93-3.06v-7.21H499v7.17c0,1.42.59,2.12,1.76,2.12a2.48,2.48,0,0,0,2.46-1.3v-8h2.49v11.12h-2.35Z"/><path class="cls-1" d="M515.85,157.34l.07,1.16a4,4,0,0,1,3.21-1.36,3.07,3.07,0,0,1,3,1.7,3.94,3.94,0,0,1,3.41-1.7,3.49,3.49,0,0,1,2.74,1,4.46,4.46,0,0,1,.92,3v7.31h-2.5v-7.23a2.22,2.22,0,0,0-.46-1.56,2.48,2.48,0,0,0-2.92,0,2.42,2.42,0,0,0-.76,1.2v7.62h-2.5v-7.32a1.77,1.77,0,0,0-2-2A2.21,2.21,0,0,0,516,160.4v8.06H513.5V157.34Z"/><path class="cls-1" d="M538.63,165.83a1.4,1.4,0,0,1,1.08.4,1.33,1.33,0,0,1,.38,1,1.3,1.3,0,0,1-.38,1,1.7,1.7,0,0,1-2.14,0,1.3,1.3,0,0,1-.39-1,1.37,1.37,0,0,1,.38-1A1.4,1.4,0,0,1,538.63,165.83Z"/><path class="cls-1" d="M552.78,166.67a2.28,2.28,0,0,0,1.56-.54,1.82,1.82,0,0,0,.65-1.35h2.36a3.75,3.75,0,0,1-.65,1.94,4.21,4.21,0,0,1-1.64,1.42,4.93,4.93,0,0,1-2.24.53,4.76,4.76,0,0,1-3.7-1.51,6,6,0,0,1-1.37-4.18v-.25a5.92,5.92,0,0,1,1.35-4.07,4.7,4.7,0,0,1,3.71-1.52,4.58,4.58,0,0,1,3.23,1.15,4.14,4.14,0,0,1,1.31,3H555a2.23,2.23,0,0,0-.65-1.57,2.12,2.12,0,0,0-1.56-.62,2.2,2.2,0,0,0-1.87.88,4.48,4.48,0,0,0-.66,2.67v.4a4.5,4.5,0,0,0,.65,2.69A2.16,2.16,0,0,0,552.78,166.67Z"/><path class="cls-1" d="M564,162.8a6.62,6.62,0,0,1,.64-3,4.8,4.8,0,0,1,1.82-2,5.13,5.13,0,0,1,2.7-.7,4.87,4.87,0,0,1,3.65,1.44,5.77,5.77,0,0,1,1.52,3.85V163a6.62,6.62,0,0,1-.64,2.94,4.69,4.69,0,0,1-1.8,2,5.23,5.23,0,0,1-2.72.71,4.84,4.84,0,0,1-3.77-1.57,6,6,0,0,1-1.41-4.18Zm2.49.21a4.5,4.5,0,0,0,.71,2.69,2.49,2.49,0,0,0,3.95,0,5,5,0,0,0,.7-2.89,4.34,4.34,0,0,0-.73-2.67,2.44,2.44,0,0,0-3.91,0A4.86,4.86,0,0,0,566.52,163Z"/><path class="cls-1" d="M584.09,157.34l.07,1.16a4,4,0,0,1,3.21-1.36,3.07,3.07,0,0,1,3,1.7,3.93,3.93,0,0,1,3.41-1.7,3.49,3.49,0,0,1,2.74,1,4.46,4.46,0,0,1,.92,3v7.31H595v-7.23a2.22,2.22,0,0,0-.46-1.56,2.48,2.48,0,0,0-2.92,0,2.35,2.35,0,0,0-.76,1.2v7.62h-2.5v-7.32a1.77,1.77,0,0,0-2-2,2.21,2.21,0,0,0-2.13,1.22v8.06h-2.5V157.34Z"/><path class="cls-1" d="M80.21,115.16A57.4,57.4,0,0,0,94,123.58v44.8H66.39v-44.8A57.12,57.12,0,0,0,80.21,115.16Zm48.88-49.82V0H118.84V55.54A54.35,54.35,0,0,0,129.09,65.34ZM144.76,0H134.51V68.82a57.27,57.27,0,0,0,10.25,4.51Zm5.42,0V74.86a70.75,70.75,0,0,0,10.25,1.62V0ZM10.25,0H0V76.48a70.75,70.75,0,0,0,10.25-1.62ZM25.92,0H15.67V73.33a57.27,57.27,0,0,0,10.25-4.51ZM41.59,55.54V0H31.34V65.34A54.35,54.35,0,0,0,41.59,55.54ZM160.43,81.88V92.13c-30.37-2-53.27-18.17-63.68-43.34-.73,2.58-1.56,5.11-2.46,7.59,12.19,24,35.8,39.28,66.14,41.17V107.8C129.21,106.07,104,91.29,89.2,68.06c-.93,1.83-1.92,3.62-3,5.38,15.92,23.32,42.17,38.11,74.18,39.78v55.16H150.18V122.54c-1.83-.24-3.63-.52-5.42-.84v46.68H134.51v-49q-2.74-.77-5.42-1.67v50.71H118.84V113.63A99.68,99.68,0,0,1,80.21,82.57a99.72,99.72,0,0,1-38.62,31.06v54.75H31.34V117.67q-2.67.9-5.42,1.67v49H15.67V121.7q-2.68.48-5.42.84v45.84H0V113.22c32-1.67,58.25-16.46,74.18-39.78q-1.56-2.64-3-5.38c-14.76,23.23-40,38-71.23,39.74V97.55c30.33-1.89,54-17.21,66.14-41.17q-1.36-3.72-2.46-7.59C53.27,74,30.36,90.1,0,92.13V81.88c34.32-2.66,56.75-25.08,59.4-59.4H69.68a108.85,108.85,0,0,0,2.47,18.11,91.71,91.71,0,0,0,2.92-18.11H85.35a92.45,92.45,0,0,0,2.93,18.11,107.82,107.82,0,0,0,2.46-18.11H101C103.68,56.8,126.11,79.22,160.43,81.88ZM83.16,56.77q-1.64-3.66-3-7.53c-.87,2.58-1.86,5.09-2.94,7.53q1.37,3.28,2.94,6.41Q81.8,60.06,83.16,56.77Z"/><path class="cls-1" d="M246.19,59H225.35v56.46h-5.14V59H199.42V54.64h46.77Z"/><path class="cls-1" d="M279.93,109.72q-4.51,6.56-14.41,6.56-7.22,0-11-4.2T250.7,99.66V70.26h5V99q0,12.9,10.44,12.9,10.86,0,13.74-9V70.26h5v45.18H280Z"/><path class="cls-1" d="M303.44,115.44h-5V51.3h5Z"/><path class="cls-1" d="M346.07,109.72q-4.5,6.56-14.4,6.56-7.23,0-11-4.2t-3.85-12.42V70.26h5V99q0,12.9,10.44,12.9,10.86,0,13.74-9V70.26h5v45.18h-4.84Z"/><path class="cls-1" d="M368.54,70.26l.17,7.35A16.71,16.71,0,0,1,375,71.47a17.13,17.13,0,0,1,8.35-2q10.69,0,13.57,8.77a17,17,0,0,1,6.48-6.49,17.9,17.9,0,0,1,8.93-2.28q14.54,0,14.83,15.87v30.15h-5V85.67q0-6.06-2.61-9c-1.71-2-4.51-2.92-8.37-2.92A13.28,13.28,0,0,0,402,77.25a12.31,12.31,0,0,0-4.13,8.29v29.9h-5V85.29q0-5.81-2.74-8.66c-1.79-1.91-4.56-2.86-8.29-2.86a12.59,12.59,0,0,0-8.1,2.69,15.82,15.82,0,0,0-5,8v31h-5V70.26Z"/><path class="cls-1" d="M484.46,90.09H466.8v25.35h-5.18V54.64h19.75q9.74,0,15.2,4.71T502,72.53a16.49,16.49,0,0,1-3.42,10.31A17.54,17.54,0,0,1,489.43,89l15.2,25.89v.54h-5.47ZM466.8,85.75h15.74q6.48,0,10.4-3.68a12.46,12.46,0,0,0,3.92-9.54q0-6.44-4.09-10T481.29,59H466.8Z"/><path class="cls-1" d="M532.36,116.28a19.64,19.64,0,0,1-10.42-2.84,19.34,19.34,0,0,1-7.24-7.92,24.6,24.6,0,0,1-2.59-11.38V92.35a26.65,26.65,0,0,1,2.52-11.74,20.11,20.11,0,0,1,7-8.2,17.36,17.36,0,0,1,9.77-3q8.22,0,13,5.62t4.82,15.35v2.79H517.08v1a18.89,18.89,0,0,0,4.4,12.8,14,14,0,0,0,11.09,5.12,16.37,16.37,0,0,0,7.08-1.46,15.84,15.84,0,0,0,5.57-4.68l3.13,2.38Q542.84,116.28,532.36,116.28Zm-.92-42.6a12.49,12.49,0,0,0-9.5,4.14q-3.87,4.13-4.7,11.1h27.1v-.54a16.59,16.59,0,0,0-3.71-10.61A11.54,11.54,0,0,0,531.44,73.68Z"/><path class="cls-1" d="M587.56,115.44a23.71,23.71,0,0,1-1-6.31,17.31,17.31,0,0,1-6.7,5.29,20.5,20.5,0,0,1-8.62,1.86,15.19,15.19,0,0,1-10.55-3.64,11.84,11.84,0,0,1-4-9.18A12.08,12.08,0,0,1,562.2,93q5.49-3.84,15.3-3.85h9.06V84a9.89,9.89,0,0,0-3-7.62c-2-1.85-4.9-2.78-8.71-2.78a13.62,13.62,0,0,0-8.64,2.67,7.93,7.93,0,0,0-3.43,6.43l-5,0q0-5.39,5-9.33a19.31,19.31,0,0,1,12.32-4q7.56,0,11.92,3.78t4.49,10.55v21.38q0,6.56,1.38,9.81v.5Zm-15.7-3.59a16.83,16.83,0,0,0,9-2.42,14.26,14.26,0,0,0,5.74-6.48V93h-8.93q-7.49.08-11.7,2.73a8.21,8.21,0,0,0-4.21,7.29,8.06,8.06,0,0,0,2.81,6.3A10.64,10.64,0,0,0,571.86,111.85Z"/><path class="cls-1" d="M610.45,115.44h-5V51.3h5Z"/><path class="cls-1" d="M658.76,86.29H630.33V111.1H663v4.34H625.19V54.64h37.62V59H630.33V82h28.43Z"/><path class="cls-1" d="M699.73,104a7.12,7.12,0,0,0-3-6q-3-2.26-9-3.53a40.48,40.48,0,0,1-9.33-2.93,12.43,12.43,0,0,1-4.93-4,10,10,0,0,1-1.61-5.76,10.74,10.74,0,0,1,4.47-8.83,18.09,18.09,0,0,1,11.44-3.49q7.56,0,12.14,3.74a12,12,0,0,1,4.57,9.75h-5a8.12,8.12,0,0,0-3.32-6.6,15,15,0,0,0-16.29-.44,6.78,6.78,0,0,0-3,5.7,6.13,6.13,0,0,0,2.48,5.24q2.49,1.86,9.06,3.41a42.59,42.59,0,0,1,9.86,3.3,12.82,12.82,0,0,1,4.86,4.21,11.59,11.59,0,0,1-3,15.12q-4.61,3.42-12,3.43-7.89,0-12.8-3.83a11.74,11.74,0,0,1-4.91-9.66h5a8.72,8.72,0,0,0,3.7,6.83,15.17,15.17,0,0,0,9,2.44,14.18,14.18,0,0,0,8.43-2.3A6.87,6.87,0,0,0,699.73,104Z"/><path class="cls-1" d="M723.74,58.69V70.26h9.35v4.09h-9.35v30.14q0,3.77,1.36,5.6t4.53,1.84a32.45,32.45,0,0,0,4-.41l.21,4a16.3,16.3,0,0,1-5.35.71q-5.13,0-7.47-3t-2.34-8.79V74.35h-8.31V70.26h8.31V58.69Z"/><path class="cls-1" d="M772,115.44a23.71,23.71,0,0,1-1-6.31,17.38,17.38,0,0,1-6.7,5.29,20.54,20.54,0,0,1-8.63,1.86,15.16,15.16,0,0,1-10.54-3.64,11.81,11.81,0,0,1-4-9.18A12.09,12.09,0,0,1,746.6,93q5.49-3.84,15.31-3.85H771V84a9.9,9.9,0,0,0-3-7.62q-3-2.78-8.71-2.78a13.62,13.62,0,0,0-8.64,2.67,8,8,0,0,0-3.42,6.43l-5,0q0-5.39,5-9.33a19.29,19.29,0,0,1,12.32-4q7.54,0,11.92,3.78t4.49,10.55v21.38q0,6.56,1.37,9.81v.5Zm-15.7-3.59a16.85,16.85,0,0,0,9-2.42A14.26,14.26,0,0,0,771,103V93H762q-7.47.08-11.69,2.73a8.22,8.22,0,0,0-4.22,7.29,8.07,8.07,0,0,0,2.82,6.3A10.62,10.62,0,0,0,756.27,111.85Z"/><path class="cls-1" d="M797,58.69V70.26h9.36v4.09H797v30.14a9.45,9.45,0,0,0,1.36,5.6q1.36,1.84,4.53,1.84a32.1,32.1,0,0,0,4.05-.41l.21,4a16.27,16.27,0,0,1-5.34.71q-5.15,0-7.48-3T792,104.5V74.35H783.7V70.26H792V58.69Z"/><path class="cls-1" d="M834.23,116.28a19.67,19.67,0,0,1-10.42-2.84,19.34,19.34,0,0,1-7.24-7.92A24.6,24.6,0,0,1,814,94.14V92.35a26.65,26.65,0,0,1,2.52-11.74,20.11,20.11,0,0,1,7-8.2,17.39,17.39,0,0,1,9.77-3q8.24,0,13.05,5.62t4.83,15.35v2.79H819v1a18.94,18.94,0,0,0,4.4,12.8,14,14,0,0,0,11.09,5.12,16.37,16.37,0,0,0,7.08-1.46,15.84,15.84,0,0,0,5.57-4.68l3.14,2.38Q844.71,116.28,834.23,116.28Zm-.92-42.6a12.49,12.49,0,0,0-9.5,4.14,19.11,19.11,0,0,0-4.7,11.1h27.11v-.54a16.6,16.6,0,0,0-3.72-10.61A11.54,11.54,0,0,0,833.31,73.68Z"/></g></g></svg>